PathFileType	4	(X/Y/Z)	RBDS013static.trc
DataRate	CameraRate	NumFrames	NumMarkers	Units	OrigDataRate	OrigDataStartFrame	OrigNumFrames
150.000000	150.000000	4	48	mm	150.000000	0	150
Frame#	Time	L.Ankle			L.Ankle.Medial			L.ASIS			L.GTR			L.Heel.Bottom			L.Heel.Lateral			L.Heel.Top			L.HF			L.Iliac.Crest			L.Knee			L.Knee.Medial			L.MT1			L.MT2			L.MT5			L.PSIS			L.Shank.Bottom.Lateral			L.Shank.Bottom.Medial			L.Shank.Top.Lateral			L.Shank.Top.Medial			L.Thigh.Bottom.Lateral			L.Thigh.Bottom.Medial			L.Thigh.Top.Lateral			L.Thigh.Top.Medial			L.TT			R.Ankle			R.Ankle.Medial			R.ASIS			R.GTR			R.Heel.Bottom			R.Heel.Lateral			R.Heel.Top			R.HF			R.Iliac.Crest			R.Knee			R.Knee.Medial			R.MT1			R.MT2			R.MT5			R.PSIS			R.Shank.Bottom.Lateral			R.Shank.Bottom.Medial			R.Shank.Top.Lateral			R.Shank.Top.Medial			R.Thigh.Bottom.Lateral			R.Thigh.Bottom.Medial			R.Thigh.Top.Lateral			R.Thigh.Top.Medial			R.TT			
		X1	Y1	Z1	X2	Y2	Z2	X3	Y3	Z3	X4	Y4	Z4	X5	Y5	Z5	X6	Y6	Z6	X7	Y7	Z7	X8	Y8	Z8	X9	Y9	Z9	X10	Y10	Z10	X11	Y11	Z11	X12	Y12	Z12	X13	Y13	Z13	X14	Y14	Z14	X15	Y15	Z15	X16	Y16	Z16	X17	Y17	Z17	X18	Y18	Z18	X19	Y19	Z19	X20	Y20	Z20	X21	Y21	Z21	X22	Y22	Z22	X23	Y23	Z23	X24	Y24	Z24	X25	Y25	Z25	X26	Y26	Z26	X27	Y27	Z27	X28	Y28	Z28	X29	Y29	Z29	X30	Y30	Z30	X31	Y31	Z31	X32	Y32	Z32	X33	Y33	Z33	X34	Y34	Z34	X35	Y35	Z35	X36	Y36	Z36	X37	Y37	Z37	X38	Y38	Z38	X39	Y39	Z39	X40	Y40	Z40	X41	Y41	Z41	X42	Y42	Z42	X43	Y43	Z43	X44	Y44	Z44	X45	Y45	Z45	X46	Y46	Z46	X47	Y47	Z47	X48	Y48	Z48	

1	0	705.7687377929688	102.7568969726563	1048.609619140625	723.57958984375	115.5018615722656	1129.908813476563	814.002685546875	938.45458984375	1112.601318359375	735.3021240234375	849.7041625976563	1065.532104492188	632.9653930664063	40.16162109375	1092.505249023438	656.4264526367188	64.28766632080078	1051.239624023438	641.6952514648438	87.39724731445313	1092.0126953125	742.533447265625	437.5333557128906	1058.402587890625	756.7366943359375	1002.188293457031	1082.6650390625	745.4929809570313	493.7969360351563	1062.392211914063	736.8452758789063	479.535888671875	1183.647827148438	842.260498046875	60.0804557800293	1128.58251953125	853.9096069335938	71.78800201416016	1086.09765625	814.55517578125	44.34098434448242	1020.451477050781	653.1325073242188	973.7453002929688	1185.73388671875	701.9424438476563	176.8637390136719	1044.77880859375	661.0702514648438	176.624755859375	1082.063720703125	694.6904907226563	257.173095703125	1038.932495117188	656.1178588867188	257.4561462402344	1076.433837890625	764.0021362304688	592.8632202148438	1045.685791015625	698.2966918945313	590.037109375	1077.9482421875	752.8751220703125	702.525634765625	1040.208862304688	691.779541015625	700.2376708984375	1071.593505859375	784.94873046875	414.8152465820313	1100.00390625	712.1104736328125	102.0129623413086	1413.541625976563	732.6436767578125	115.1328659057617	1333.21923828125	823.4609985351563	940.8921508789063	1348.921508789063	755.792724609375	851.4722290039063	1401.995727539063	638.359130859375	40.58998107910156	1370.64208984375	662.5468139648438	61.20092391967773	1410.390869140625	646.9990844726563	91.56269836425781	1369.872802734375	747.4329833984375	436.4784545898438	1407.065063476563	773.0048828125	1003.768188476563	1380.588745117188	743.5457763671875	501.3932495117188	1401.772094726563	743.0438232421875	479.6567993164063	1281.901977539063	845.3065795898438	58.99631881713867	1331.2939453125	852.3609008789063	77.71381378173828	1365.12548828125	819.1093139648438	52.14727783203125	1441.648071289063	654.5809326171875	974.799072265625	1286.343017578125	700.5299682617188	172.8377532958984	1416.98974609375	664.7940673828125	174.7297058105469	1380.188842773438	696.538330078125	257.4588623046875	1423.402099609375	659.0455322265625	255.2731475830078	1384.806762695313	749.6302490234375	628.6412963867188	1419.140380859375	692.3165283203125	621.1107177734375	1373.214111328125	734.5662231445313	737.2503051757813	1415.360717773438	681.187744140625	731.0174560546875	1371.212158203125	788.1599731445313	413.0917053222656	1367.548461914063	
2	0.006666666666666667	705.7708740234375	102.7479782104492	1048.604370117188	723.581298828125	115.5038757324219	1129.909301757813	814.0181274414063	938.4442138671875	1112.567260742188	735.3126220703125	849.6950073242188	1065.5263671875	632.9616088867188	40.15733337402344	1092.503051757813	656.419677734375	64.29154968261719	1051.23486328125	641.6917724609375	87.39260101318359	1092.014892578125	742.5471801757813	437.5243225097656	1058.380859375	756.7294311523438	1002.177795410156	1082.640869140625	745.4949951171875	493.7909851074219	1062.386352539063	736.8536376953125	479.5310363769531	1183.635009765625	842.25244140625	60.07061386108398	1128.588012695313	853.906494140625	71.78707122802734	1086.08984375	814.5521240234375	44.33919906616211	1020.44384765625	653.1376953125	973.7377319335938	1185.723022460938	701.9486694335938	176.8506164550781	1044.775512695313	661.0740966796875	176.6300048828125	1082.054565429688	694.7027587890625	257.1694641113281	1038.92333984375	656.1233520507813	257.4532775878906	1076.426879882813	764.0267944335938	592.8563842773438	1045.674560546875	698.3236694335938	590.026611328125	1077.946533203125	752.8765258789063	702.527099609375	1040.198486328125	691.7947387695313	700.2481689453125	1071.587036132813	784.9615478515625	414.8038330078125	1100.003173828125	712.118896484375	102.02001953125	1413.5439453125	732.6408081054688	115.120361328125	1333.215576171875	823.4641723632813	940.8929443359375	1348.890747070313	755.8121337890625	851.4722290039063	1401.983154296875	638.3484497070313	40.59198760986328	1370.645263671875	662.5546264648438	61.2001838684082	1410.3916015625	646.9873046875	91.56386566162109	1369.870849609375	747.4227294921875	436.46240234375	1407.020263671875	773.0122680664063	1003.774108886719	1380.558227539063	743.52978515625	501.4024658203125	1401.775634765625	743.0274658203125	479.66259765625	1281.870849609375	845.3139038085938	58.98369598388672	1331.308715820313	852.3588256835938	77.71169281005859	1365.12060546875	819.1102905273438	52.15402221679688	1441.62646484375	654.5850830078125	974.7893676757813	1286.316162109375	700.5272827148438	172.8356628417969	1416.983154296875	664.7909545898438	174.7255401611328	1380.178588867188	696.534423828125	257.4524536132813	1423.38525390625	659.037353515625	255.2643280029297	1384.797729492188	749.6287231445313	628.6390991210938	1419.123779296875	692.316162109375	621.1131591796875	1373.197509765625	734.5768432617188	737.255126953125	1415.350463867188	681.1858520507813	731.0176391601563	1371.187744140625	788.1381225585938	413.0921325683594	1367.542236328125	
3	0.01333333333333333	705.7681274414063	102.7442169189453	1048.613403320313	723.5748291015625	115.5053482055664	1129.920166015625	814.0263061523438	938.4481201171875	1112.550659179688	735.3345947265625	849.6876220703125	1065.485107421875	632.9589233398438	40.15494918823242	1092.505126953125	656.4210815429688	64.27826690673828	1051.238891601563	641.6961059570313	87.39302825927734	1092.013916015625	742.5510864257813	437.5302429199219	1058.382934570313	756.7359619140625	1002.164428710938	1082.60107421875	745.5144653320313	493.7853088378906	1062.37646484375	736.8805541992188	479.5339050292969	1183.615478515625	842.247314453125	60.08276748657227	1128.59130859375	853.9004516601563	71.79880523681641	1086.08935546875	814.5577392578125	44.33446884155273	1020.450927734375	653.1450805664063	973.7354125976563	1185.6845703125	701.9408569335938	176.85107421875	1044.763793945313	661.0745239257813	176.6302795410156	1082.048461914063	694.7013549804688	257.1676330566406	1038.921142578125	656.1303100585938	257.4454650878906	1076.415161132813	764.0431518554688	592.86767578125	1045.658203125	698.3485717773438	590.0438232421875	1077.928344726563	752.904296875	702.5297241210938	1040.181762695313	691.8042602539063	700.25732421875	1071.591064453125	784.9639282226563	414.8085632324219	1099.985595703125	712.1170654296875	102.0180587768555	1413.53759765625	732.6351928710938	115.126953125	1333.216552734375	823.4707641601563	940.888916015625	1348.8525390625	755.8074951171875	851.4741821289063	1401.963256835938	638.3614501953125	40.58301544189453	1370.635864257813	662.5476684570313	61.19952392578125	1410.390869140625	646.99365234375	91.55705261230469	1369.876953125	747.4058227539063	436.4595642089844	1407.019897460938	773.0172119140625	1003.778991699219	1380.525146484375	743.5147094726563	501.3931274414063	1401.755249023438	743.0296630859375	479.6568298339844	1281.864501953125	845.3045043945313	58.97814178466797	1331.299926757813	852.35400390625	77.71511077880859	1365.125366210938	819.104248046875	52.15509796142578	1441.635009765625	654.5908203125	974.7842407226563	1286.288330078125	700.5223999023438	172.8432464599609	1416.982666015625	664.7884521484375	174.7297515869141	1380.184936523438	696.5222778320313	257.4610290527344	1423.371337890625	659.0372314453125	255.2650756835938	1384.783569335938	749.62255859375	628.6480712890625	1419.109985351563	692.3143310546875	621.1087036132813	1373.181518554688	734.5696411132813	737.2496337890625	1415.343505859375	681.1826782226563	731.0186767578125	1371.17724609375	788.1304321289063	413.0916748046875	1367.529174804688	
4	0.02	705.7715454101563	102.7471008300781	1048.613403320313	723.5742797851563	115.4966812133789	1129.906860351563	814.0462036132813	938.4451293945313	1112.516723632813	735.3525390625	849.6837768554688	1065.479858398438	632.9630737304688	40.1522331237793	1092.49560546875	656.4188232421875	64.27840423583984	1051.234008789063	641.6932373046875	87.38851165771484	1092.019287109375	742.5726318359375	437.5205688476563	1058.370849609375	756.7445068359375	1002.149780273438	1082.573364257813	745.5418701171875	493.7842407226563	1062.371826171875	736.8921508789063	479.5278625488281	1183.602172851563	842.2471923828125	60.07266998291016	1128.588134765625	853.9017333984375	71.79939270019531	1086.092041015625	814.5489501953125	44.33515930175781	1020.446228027344	653.1587524414063	973.7215576171875	1185.66943359375	701.9552001953125	176.8458709716797	1044.755615234375	661.0829467773438	176.6252746582031	1082.038330078125	694.7156372070313	257.1626586914063	1038.909790039063	656.1348266601563	257.456298828125	1076.403930664063	764.0718994140625	592.8651123046875	1045.646484375	698.3634033203125	590.037353515625	1077.930053710938	752.9319458007813	702.522705078125	1040.170776367188	691.8306884765625	700.2493286132813	1071.57421875	784.9903564453125	414.7984619140625	1099.957641601563	712.1206665039063	102.0103454589844	1413.529296875	732.637939453125	115.1242141723633	1333.218017578125	823.4698486328125	940.8900146484375	1348.826049804688	755.8031005859375	851.4837646484375	1401.938110351563	638.355712890625	40.58628463745117	1370.635375976563	662.5515747070313	61.19922256469727	1410.390747070313	646.9945068359375	91.55693817138672	1369.864013671875	747.4036865234375	436.4563903808594	1407.01025390625	773.0205688476563	1003.781127929688	1380.502807617188	743.5086059570313	501.3815612792969	1401.726684570313	743.018798828125	479.6515197753906	1281.842895507813	845.3079223632813	58.9871826171875	1331.296630859375	852.3560791015625	77.70580291748047	1365.11083984375	819.1025390625	52.14875793457031	1441.631225585938	654.5859985351563	974.772705078125	1286.261474609375	700.5203247070313	172.8358001708984	1416.976318359375	664.7844848632813	174.7256164550781	1380.172729492188	696.5248413085938	257.4488830566406	1423.365356445313	659.0283203125	255.2658233642578	1384.776000976563	749.616455078125	628.6396484375	1419.101318359375	692.3140258789063	621.1133422851563	1373.173950195313	734.56787109375	737.247314453125	1415.317626953125	681.1882934570313	731.013671875	1371.170654296875	788.1359252929688	413.0823364257813	1367.503540039063	
